<?xml version="1.0" encoding="UTF-8" standalone="no"?>
<svg
   version="1.0"
   width="450.000000pt"
   height="450.000000pt"
   viewBox="0 0 450.000000 450.000000"
   preserveAspectRatio="xMidYMid meet"
   id="svg34"
   sodipodi:docname="logo5.svg"
   inkscape:version="1.4.2 (f4327f4, 2025-05-13)"
   xmlns:inkscape="http://www.inkscape.org/namespaces/inkscape"
   xmlns:sodipodi="http://sodipodi.sourceforge.net/DTD/sodipodi-0.dtd"
   xmlns="http://www.w3.org/2000/svg"
   xmlns:svg="http://www.w3.org/2000/svg">
  <defs
     id="defs34" />
  <sodipodi:namedview
     id="namedview34"
     pagecolor="#ffffff"
     bordercolor="#000000"
     borderopacity="0.25"
     inkscape:showpageshadow="2"
     inkscape:pageopacity="0.0"
     inkscape:pagecheckerboard="0"
     inkscape:deskcolor="#d1d1d1"
     inkscape:document-units="pt"
     inkscape:zoom="1.345"
     inkscape:cx="301.11524"
     inkscape:cy="300"
     inkscape:window-width="1920"
     inkscape:window-height="1009"
     inkscape:window-x="1912"
     inkscape:window-y="-8"
     inkscape:window-maximized="1"
     inkscape:current-layer="svg34" />
  <metadata
     id="metadata1">
Created by potrace 1.10, written by Peter Selinger 2001-2011
</metadata>
  <g
     transform="matrix(0.07872954,0,0,-0.07913424,-184.38855,562.77902)"
     fill="#ffffff"
     stroke="none"
     id="g34"
     style="fill:#ffffff;fill-opacity:1">
    <path
       d="m 4159,7070 c -404,-76 -753,-249 -1088,-539 -78,-67 -166,-132 -196,-146 -40,-17 -55,-39 -55,-77 0,-29 -40,-114 -91,-189 -516,-777 -516,-1825 1,-2550 59,-83 90,-147 90,-187 0,-50 10,-64 53,-75 30,-7 119,-73 198,-147 688,-638 1834,-796 2600,-359 239,137 380,244 457,346 52,71 63,76 130,66 125,-20 146,17 70,121 -31,43 -29,47 42,112 109,100 333,507 360,654 1,6 12,42 25,80 117,349 84,1077 -64,1410 -15,33 -42,95 -59,137 -47,114 -170,314 -237,386 -35,38 -57,81 -55,110 7,84 1,96 -65,124 -36,16 -122,74 -191,130 -642,521 -1276,716 -1925,593 z m 597,-112 c 60,-33 114,-55 120,-49 6,6 22,1 37,-12 15,-12 27,-15 27,-7 0,8 12,5 26,-6 14,-12 43,-19 65,-16 21,4 64,-6 94,-21 30,-15 59,-28 65,-27 6,0 42,-13 80,-29 39,-16 73,-29 75,-29 26,2 72,-30 64,-44 -6,-10 3,-18 20,-18 17,0 31,-8 31,-18 0,-10 17,-14 38,-8 23,6 55,-7 80,-32 23,-23 51,-42 62,-42 11,0 20,-7 20,-17 0,-9 25,-29 55,-45 30,-15 60,-34 66,-42 6,-8 28,-18 50,-22 181,-33 389,-223 389,-356 0,-71 19,-121 42,-107 10,6 13,-2 6,-18 -6,-16 8,-42 33,-59 24,-17 38,-40 31,-51 -7,-11 5,-26 26,-32 23,-8 43,-38 51,-82 7,-38 23,-69 35,-69 13,0 17,-6 10,-12 -7,-7 6,-48 27,-90 22,-43 31,-78 19,-78 -11,0 -20,-9 -20,-20 0,-11 14,-20 32,-20 24,0 29,-16 22,-70 -5,-38 -2,-65 8,-59 30,19 44,-49 18,-81 -21,-25 -17,-30 23,-30 34,-1 40,-5 19,-18 -16,-10 -21,-28 -11,-43 8,-14 14,-56 13,-93 -2,-37 4,-63 13,-58 9,6 15,-20 14,-57 0,-37 -8,-63 -16,-58 -8,5 -15,-9 -15,-31 0,-22 -9,-45 -21,-53 -14,-9 -14,-21 1,-39 17,-20 15,-31 -5,-43 -35,-21 -61,-87 -34,-87 10,0 19,9 19,20 0,11 8,20 17,20 15,0 30,-121 24,-200 -1,-16 -1,-55 -1,-86 1,-31 -7,-52 -17,-46 -23,14 -50,-120 -31,-151 9,-14 5,-18 -9,-9 -21,13 -32,-11 -25,-53 1,-8 -7,-15 -18,-15 -11,0 -20,-10 -20,-21 0,-12 9,-16 20,-9 11,7 20,3 20,-9 0,-11 -11,-21 -25,-21 -19,-1 -18,-5 2,-18 21,-13 20,-19 -5,-28 -18,-7 -26,-25 -20,-43 7,-17 3,-31 -9,-31 -12,0 -16,-14 -10,-31 7,-19 2,-28 -13,-25 -16,4 -28,-20 -31,-61 -4,-37 -23,-87 -44,-110 -21,-24 -50,-72 -64,-108 -14,-36 -33,-65 -41,-65 -8,0 -20,-20 -26,-45 -22,-86 95,77 201,281 168,324 241,599 266,994 l 16,260 -7,-280 c -13,-490 -233,-1108 -458,-1285 -26,-20 -53,-56 -61,-81 -7,-24 -22,-44 -32,-44 -11,0 -19,-13 -19,-30 0,-27 -24,-39 -65,-32 -8,1 -15,-10 -15,-24 0,-27 -157,-127 -185,-119 -8,3 -15,-3 -15,-13 0,-33 -209,-170 -254,-166 -53,4 -82,-34 -44,-58 22,-14 21,-17 -7,-18 -19,0 -35,8 -35,18 0,10 -18,14 -40,8 -22,-6 -34,-20 -27,-31 9,-14 -6,-16 -43,-7 -46,12 -53,9 -42,-19 9,-23 4,-30 -15,-23 -16,6 -37,2 -47,-8 -21,-21 -222,-63 -319,-66 -35,-1 -59,-10 -53,-19 6,-9 -11,-14 -37,-12 -26,3 -60,0 -77,-5 -285,-97 -356,-99 -530,-16 -70,33 -154,66 -188,73 -34,6 -58,18 -54,24 5,7 -11,14 -35,16 -92,6 -130,16 -120,31 5,9 -2,17 -17,18 -107,10 -179,41 -167,73 10,25 7,26 -19,5 -16,-14 -30,-17 -30,-6 0,10 -32,30 -72,44 -40,14 -89,43 -110,64 -21,21 -38,32 -38,25 0,-7 -21,9 -46,35 -25,26 -59,51 -75,55 -16,3 -42,17 -59,31 -16,14 -70,36 -118,50 -198,57 -255,124 -291,342 -4,28 -10,55 -12,60 -2,6 -2,26 0,45 2,20 -8,34 -23,30 -17,-3 -26,15 -25,51 1,33 -8,52 -22,47 -12,-5 -23,1 -24,14 -3,23 -19,95 -26,113 -2,6 -3,17 -1,26 1,8 -11,20 -28,27 -16,6 -25,19 -19,29 6,10 1,18 -12,18 -14,0 -19,17 -13,39 5,22 -3,50 -18,63 -15,12 -28,40 -28,61 0,21 -8,53 -18,72 -38,74 -70,214 -73,322 -2,62 -6,113 -8,113 -19,0 -15,122 5,134 18,12 18,15 0,16 -15,0 -20,23 -14,65 5,36 11,106 14,155 3,50 11,99 18,110 7,12 19,61 26,110 7,50 21,93 30,96 10,4 13,20 7,35 -6,16 0,29 13,29 20,0 20,6 0,30 -17,21 -18,30 -2,30 12,0 22,14 22,30 0,17 8,46 18,65 64,121 98,203 87,213 -6,7 0,12 14,12 15,0 20,13 13,31 -6,17 -4,26 5,21 18,-11 45,66 83,236 36,158 68,201 194,262 64,30 150,71 191,91 42,20 70,27 63,16 -7,-11 7,-8 30,6 23,15 38,39 32,54 -7,18 0,24 20,16 16,-7 30,-2 30,9 0,11 7,16 16,10 9,-5 29,7 44,28 15,21 35,33 44,28 9,-6 16,-3 16,7 0,9 20,18 45,20 24,2 48,13 51,24 4,12 19,21 34,21 15,0 30,9 33,19 4,11 25,23 47,26 22,4 61,19 88,33 37,21 50,21 62,1 11,-17 19,-14 28,13 6,21 32,40 57,42 108,8 171,28 304,94 209,104 282,103 487,-10 z"
       id="path1"
       style="fill:#ffffff;fill-opacity:1" />
    <path
       d="m 4409,6971 c -95,-95 -37,-231 100,-231 125,0 174,139 82,231 -62,62 -120,62 -182,0 z m 140,-38 c 53,-38 28,-133 -35,-133 -88,0 -129,98 -59,138 46,27 51,27 94,-5 z"
       id="path2"
       style="fill:#ffffff;fill-opacity:1" />
    <path
       d="M 4130,6540 C 2843,6197 2384,4604 3294,3639 c 106,-113 441,-379 476,-379 5,0 33,-20 61,-45 29,-25 58,-46 66,-47 41,-5 83,-36 94,-70 9,-30 26,-37 80,-31 39,4 78,-3 89,-17 11,-13 43,-22 70,-19 27,3 55,-2 61,-12 6,-10 30,-10 55,-1 58,22 224,15 324,-12 84,-24 156,-22 215,3 19,8 48,10 64,4 17,-6 35,-2 42,8 6,11 20,14 30,8 11,-6 19,-3 19,8 0,22 37,20 75,-4 23,-14 33,-3 27,32 -3,19 99,63 133,57 14,-2 25,6 25,18 0,12 9,17 20,10 11,-7 20,-4 20,7 0,10 27,28 60,40 33,12 60,30 60,42 0,12 18,21 39,21 38,0 261,212 261,247 0,10 70,87 155,173 181,181 207,212 190,228 -6,7 -1,12 13,12 13,0 20,8 14,17 -6,9 5,34 24,55 44,49 87,146 74,167 -14,23 40,64 60,46 9,-8 10,-4 2,10 -8,14 -22,21 -31,16 -8,-6 2,26 24,69 21,44 39,111 39,150 0,38 7,70 15,70 9,0 11,24 5,53 -5,29 -2,48 8,42 11,-7 16,83 14,212 -2,123 -6,223 -7,223 -2,0 -6,39 -10,87 -4,48 -18,100 -31,115 -13,16 -15,28 -5,28 9,0 4,10 -13,22 -23,16 -24,24 -5,31 14,6 25,24 25,41 0,25 -6,26 -30,6 -28,-23 -43,16 -32,85 1,8 -8,15 -19,15 -12,0 -16,9 -9,20 7,12 -6,51 -29,88 -22,37 -41,80 -41,97 0,17 -23,52 -51,78 -28,26 -63,76 -78,111 -16,37 -49,70 -75,77 -25,7 -91,67 -146,133 -169,202 -263,296 -296,296 -53,0 -94,23 -81,45 7,12 4,15 -7,8 -12,-7 -49,1 -82,18 -33,17 -100,34 -147,38 -48,4 -170,27 -272,49 -243,55 -595,56 -795,2 z m 830,-101 c 1471,-409 1589,-2557 172,-3130 -911,-369 -1817,109 -2067,1091 -79,312 -10,948 121,1116 11,14 43,69 72,123 312,583 1119,963 1702,800 z"
       id="path3"
       style="fill:#ffffff;fill-opacity:1" />
    <path
       d="m 4650,6032 c -220,-96 -393,-472 -218,-472 39,0 48,10 48,56 0,171 158,324 334,324 160,0 347,-107 289,-165 -34,-34 -29,-50 26,-86 46,-31 50,-29 118,45 l 70,76 -11,-85 c -14,-106 36,-117 123,-26 70,73 57,112 -46,140 -43,12 -90,35 -103,52 -14,16 -41,25 -59,19 -20,-6 -50,7 -73,33 -94,105 -354,152 -498,89 z"
       id="path4"
       style="fill:#ffffff;fill-opacity:1" />
    <path
       d="m 4750,5901 c -103,-43 -200,-206 -171,-288 15,-43 46,-15 70,61 7,25 44,90 83,145 38,56 66,100 63,100 -3,-1 -23,-9 -45,-18 z"
       id="path5"
       style="fill:#ffffff;fill-opacity:1" />
    <path
       d="m 4320,5477 v -57 h 231 c 167,0 227,-6 217,-23 -9,-16 -99,-19 -301,-13 l -287,10 v -55 c 0,-121 -7,-119 368,-119 352,0 392,8 392,80 0,19 -27,40 -65,51 -51,15 -65,30 -65,69 0,43 -10,51 -75,56 -48,4 -75,16 -75,34 0,23 -36,28 -170,26 l -170,-2 z"
       id="path6"
       style="fill:#ffffff;fill-opacity:1" />
    <path
       d="m 3591,5184 c -6,-6 -11,-61 -11,-122 v -112 l 903,6 c 606,4 910,-1 924,-15 15,-15 -164,-21 -581,-21 -491,0 -604,-5 -612,-27 -6,-16 -17,-68 -24,-117 l -14,-89 157,-68 c 86,-38 172,-66 191,-63 19,4 51,-3 72,-14 108,-57 398,111 327,189 -10,10 -24,45 -31,76 l -14,58 316,-6 c 174,-2 327,-3 341,-2 81,9 16,263 -68,263 -26,0 -47,14 -51,35 -6,34 -1792,63 -1825,29 z"
       id="path7"
       style="fill:#ffffff;fill-opacity:1" />
    <path
       d="m 3640,4890 c 105,-40 540,-40 540,0 0,25 -47,30 -305,28 -278,-1 -299,-3 -235,-28 z"
       id="path8"
       style="fill:#ffffff;fill-opacity:1" />
    <path
       d="m 3693,4347 c -7,-8 -13,-34 -13,-59 0,-32 -13,-47 -45,-52 -40,-5 -46,-19 -51,-123 -7,-136 15,-173 104,-173 35,0 83,-14 108,-31 50,-35 1659,-41 1728,-6 57,29 37,192 -30,246 -30,23 -54,62 -54,87 0,35 -11,44 -59,44 -41,0 -62,12 -71,40 -13,40 -1577,66 -1617,27 z m 1522,-124 c 92,-3 105,-8 105,-45 0,-25 16,-46 41,-52 31,-8 40,-25 35,-64 -6,-55 -19,-58 -151,-36 -36,6 -65,5 -65,-3 0,-38 -1292,-13 -1366,27 -127,68 -109,166 31,174 103,6 1165,5 1370,-1 z"
       id="path9"
       style="fill:#ffffff;fill-opacity:1" />
    <path
       d="m 2973,6319 c -104,-82 -52,-239 79,-239 152,1 195,194 56,257 -67,31 -74,30 -135,-18 z m 130,-58 c 61,-50 31,-111 -55,-111 -65,0 -91,68 -47,121 31,38 45,37 102,-10 z"
       id="path10"
       style="fill:#ffffff;fill-opacity:1" />
    <path
       d="m 5869,6311 c -94,-95 -37,-231 98,-231 131,0 184,157 80,239 -69,54 -118,52 -178,-8 z m 139,-37 c 22,-16 33,-45 29,-75 -10,-71 -144,-73 -154,-3 -12,86 56,129 125,78 z"
       id="path11"
       style="fill:#ffffff;fill-opacity:1" />
    <path
       d="m 5925,3625 c -107,-18 -140,-174 -52,-244 109,-86 235,-22 223,114 -7,82 -89,144 -171,130 z m 105,-145 c 0,-77 -63,-107 -121,-59 -69,57 -30,144 60,135 55,-5 61,-13 61,-76 z"
       id="path12"
       style="fill:#ffffff;fill-opacity:1" />
    <path
       d="m 2953,3583 c -77,-84 -13,-243 98,-243 60,0 149,82 149,136 0,117 -171,191 -247,107 z m 167,-63 c 28,-52 -6,-120 -60,-120 -55,0 -103,76 -78,123 26,49 111,48 138,-3 z"
       id="path13"
       style="fill:#ffffff;fill-opacity:1" />
    <path
       d="m 4465,2965 c -103,-17 -136,-156 -56,-236 60,-60 109,-62 178,-8 113,89 23,268 -122,244 z m 91,-89 c 64,-64 -4,-157 -87,-119 -47,21 -68,97 -36,130 22,21 97,15 123,-11 z"
       id="path14"
       style="fill:#ffffff;fill-opacity:1" />
    <path
       d="m 2531,2282 c -7,-12 -8,-22 -1,-22 6,0 3,-17 -8,-37 -19,-36 -36,-504 -20,-563 31,-114 49,-28 58,276 9,315 3,397 -29,346 z"
       id="path15"
       style="fill:#ffffff;fill-opacity:1" />
    <path
       d="m 2835,2289 c -4,-4 -59,-9 -122,-11 -174,-6 -130,-47 58,-54 383,-14 432,-410 54,-442 -80,-7 -125,-19 -110,-28 59,-39 30,-174 -37,-174 -55,0 -59,-4 -37,-31 18,-22 53,-29 117,-25 l 91,6 -6,95 -6,95 h 82 c 45,0 122,20 171,45 l 89,45 v 126 c 1,121 -2,128 -85,210 -75,73 -238,163 -259,143 z"
       id="path16"
       style="fill:#ffffff;fill-opacity:1" />
    <path
       d="m 3917,2287 c -47,-13 -61,-61 -23,-76 18,-6 37,-6 44,1 7,8 0,18 -14,23 -19,7 -17,16 10,36 38,29 37,30 -17,16 z"
       id="path17"
       style="fill:#ffffff;fill-opacity:1" />
    <path
       d="m 3246,2248 c -31,-23 -17,-27 110,-27 302,-2 470,-228 285,-383 l -64,-54 71,-99 c 87,-121 88,-125 12,-125 -73,0 -77,-26 -9,-57 159,-72 255,-9 152,101 -119,130 -120,189 0,227 141,45 -89,416 -258,416 -14,0 -25,6 -25,14 0,26 -238,15 -274,-13 z"
       id="path18"
       style="fill:#ffffff;fill-opacity:1" />
    <path
       d="m 4220,2230 -50,-29 70,-1 c 73,-2 98,-32 297,-360 l 42,-70 1,107 c 0,121 -89,257 -199,303 -32,13 -63,36 -69,52 -13,35 -28,34 -92,-2 z"
       id="path19"
       style="fill:#ffffff;fill-opacity:1" />
    <path
       d="m 4925,2227 c -115,-24 -25,-47 180,-46 136,1 209,8 185,18 -51,21 -306,40 -365,28 z"
       id="path20"
       style="fill:#ffffff;fill-opacity:1" />
    <path
       d="m 5472,2209 c -26,-19 -14,-26 73,-36 155,-19 275,-16 275,7 0,42 -296,67 -348,29 z"
       id="path21"
       style="fill:#ffffff;fill-opacity:1" />
    <path
       d="m 6029,2191 c -35,-27 -23,-30 131,-30 312,-2 483,-234 280,-384 l -58,-43 79,-116 79,-116 -95,-6 c -126,-8 -58,-53 107,-70 128,-14 131,-5 38,125 -74,105 -88,163 -42,181 95,36 88,239 -12,344 -126,132 -402,194 -507,115 z"
       id="path22"
       style="fill:#ffffff;fill-opacity:1" />
    <path
       d="m 4010,1872 c 0,-321 0,-322 -46,-329 -76,-10 -12,-63 77,-63 94,0 98,11 91,250 -3,99 0,189 6,200 6,11 13,57 17,102 7,85 -5,103 -95,141 l -50,22 z"
       id="path23"
       style="fill:#ffffff;fill-opacity:1" />
    <path
       d="m 4737,1857 7,-317 h -72 c -79,0 -94,-27 -33,-59 163,-88 208,-27 203,270 -5,268 9,304 89,228 43,-40 48,-65 54,-237 6,-188 7,-187 11,53 l 4,245 h -79 c -70,0 -79,6 -85,54 -4,37 -21,57 -56,67 l -50,13 z"
       id="path24"
       style="fill:#ffffff;fill-opacity:1" />
    <path
       d="m 5329,2159 c -5,-9 -4,-40 3,-68 12,-50 10,-51 -92,-51 -92,0 -102,-4 -88,-35 9,-19 16,-134 17,-255 l 1,-220 -77,-6 c -112,-10 -37,-62 90,-63 l 93,-1 -11,235 c -12,265 3,304 101,266 58,-22 88,46 63,145 -12,50 -79,86 -100,53 z"
       id="path25"
       style="fill:#ffffff;fill-opacity:1" />
    <path
       d="m 5868,2105 12,-85 h -150 -150 v -60 c 0,-72 66,-81 200,-28 50,20 109,29 151,22 l 69,-11 v 98 c 0,90 -4,99 -46,99 -25,0 -58,11 -73,25 -21,21 -24,10 -13,-60 z"
       id="path26"
       style="fill:#ffffff;fill-opacity:1" />
    <path
       d="m 2729,2001 c 0,-78 3,-81 63,-81 137,0 153,146 18,156 l -81,6 z"
       id="path27"
       style="fill:#ffffff;fill-opacity:1" />
    <path
       d="m 3340,1990 c 0,-86 3,-90 58,-90 127,0 189,137 76,168 -113,30 -134,18 -134,-78 z"
       id="path28"
       style="fill:#ffffff;fill-opacity:1" />
    <path
       d="m 6140,1940 v -80 h 90 c 98,0 143,66 90,130 -59,72 -180,38 -180,-50 z"
       id="path29"
       style="fill:#ffffff;fill-opacity:1" />
    <path
       d="m 4311,1865 c 35,-168 23,-314 -26,-321 -55,-8 -58,-36 -7,-63 88,-47 162,-5 162,94 0,73 6,87 31,77 29,-11 -12,76 -119,253 -37,60 -58,39 -41,-40 z"
       id="path30"
       style="fill:#ffffff;fill-opacity:1" />
    <path
       d="m 5860,1817 v -61 l -135,7 -135,7 -6,-68 -7,-68 105,13 c 58,6 110,20 116,29 20,29 155,43 180,18 16,-16 22,4 22,75 0,54 -5,92 -12,86 -6,-6 -37,-4 -70,5 -55,16 -58,14 -58,-43 z"
       id="path31"
       style="fill:#ffffff;fill-opacity:1" />
    <path
       d="m 5407,1690 c 0,-77 3,-106 8,-65 4,42 4,105 -1,140 -4,36 -8,2 -7,-75 z"
       id="path32"
       style="fill:#ffffff;fill-opacity:1" />
    <path
       d="m 3344,1676 c 6,-102 4,-105 -53,-115 l -59,-11 55,-25 c 165,-75 241,3 175,180 -48,128 -125,108 -118,-29 z"
       id="path33"
       style="fill:#ffffff;fill-opacity:1" />
    <path
       d="m 6153,1610 13,-110 h -82 c -74,0 -82,5 -88,55 -10,87 -116,93 -116,6 v -62 l -187,13 c -211,15 -300,-8 -197,-50 40,-17 128,-21 276,-14 265,12 273,12 398,7 90,-5 101,-1 106,40 4,25 15,40 25,34 28,-17 24,0 -25,100 -70,144 -141,132 -123,-19 z"
       id="path34"
       style="fill:#ffffff;fill-opacity:1" />
  </g>
</svg>
